<svg xmlns="http://www.w3.org/2000/svg" viewBox="0 0 117.49 42.29"><defs><style>.cls-1{fill:none;}.cls-1,.cls-2,.cls-3,.cls-4{stroke:#231f20;}.cls-2{fill:#bc95c4;}.cls-2,.cls-3,.cls-4{stroke-linecap:round;stroke-linejoin:round;stroke-width:0.5px;}.cls-3{fill:#f7941d;}.cls-4{fill:#fff200;}.cls-5{fill:#231f20;}</style></defs><g id="Layer_2" data-name="Layer 2"><g id="Layer_1-2" data-name="Layer 1"><line class="cls-1" x1="20.77" y1="0.24" x2="20.77" y2="35.78"/><line class="cls-1" x1="38.54" y1="18.01" x2="3" y2="18.01"/><path class="cls-2" d="M19.4,16.64V7.46c0-3.09-3.75-6.84-8.73-6.88S1.36.74.25.25A10.29,10.29,0,0,1,3,6.72c.12,3.91,0,9.92,5.35,9.92Z"/><path class="cls-3" d="M19.4,16.64V13.06c0-1.2-.85-6.51-5.32-6.51s-6,.72-7-.25a11.92,11.92,0,0,1,1.44,4.77,6,6,0,0,0,5.77,5.57Z"/><path class="cls-4" d="M19.4,16.64s-.41-.91-2.76-.91-3.36-1.36-3.36-2.68a5.38,5.38,0,0,0-.72-2.49,7.82,7.82,0,0,0,3.06.68c1.67,0,3.78,1.55,3.78,3.47Z"/><path class="cls-2" d="M19.4,19.38v8.27c0,2.77-3.37,6.15-7.86,6.18s-8.37-.14-9.37.3a9.25,9.25,0,0,0,2.44-5.82c.11-3.52,0-8.93,4.82-8.93Z"/><path class="cls-3" d="M19.4,19.38v3.23c0,1.07-.76,5.85-4.78,5.85s-5.44-.64-6.31.23a10.76,10.76,0,0,0,1.3-4.3,5.36,5.36,0,0,1,5.19-5Z"/><path class="cls-4" d="M19.4,19.38s-.37.82-2.48.82-3,1.22-3,2.41a4.86,4.86,0,0,1-.64,2.24A7,7,0,0,1,16,24.24a3.53,3.53,0,0,0,3.4-3.13Z"/><path class="cls-2" d="M22.14,16.64V9.2c0-2.5,3-5.54,7.07-5.57s7.54.13,8.44-.27a8.32,8.32,0,0,0-2.2,5.24c-.1,3.17,0,8-4.34,8Z"/><path class="cls-3" d="M22.14,16.64v-2.9c0-1,.69-5.27,4.31-5.27s4.89.58,5.67-.21A9.64,9.64,0,0,0,31,12.13a4.83,4.83,0,0,1-4.67,4.51Z"/><path class="cls-4" d="M22.14,16.64s.34-.73,2.23-.73,2.73-1.11,2.73-2.18a4.39,4.39,0,0,1,.58-2,6.38,6.38,0,0,1-2.48.55,3.19,3.19,0,0,0-3.06,2.82Z"/><path class="cls-5" d="M24.15,40.69l-.46,0c0,.23,0,.64,0,1.21a.19.19,0,0,1-.09.16.55.55,0,0,1-.5,0,.19.19,0,0,1-.09-.16V41.2c0-.22,0-.54.06-.94s.07-.76.08-.95V39a.92.92,0,0,1,0-.33.32.32,0,0,1,.37-.17,1.56,1.56,0,0,1,.35,0l.54,0a3,3,0,0,1,1.3.29c.44.21.66.46.66.76a1,1,0,0,1-.71.9A3.52,3.52,0,0,1,24.15,40.69Zm.18-1.81h-.52v.43l-.08.9.42,0a2.62,2.62,0,0,0,1.07-.2q.48-.21.48-.57c0-.17-.16-.32-.46-.44A2.27,2.27,0,0,0,24.33,38.88Z"/><path class="cls-5" d="M30.84,42.06a.54.54,0,0,1-.27-.07,7.79,7.79,0,0,0-2.77-1l0,.45,0,.45a.2.2,0,0,1-.1.17.54.54,0,0,1-.27.06.53.53,0,0,1-.26-.06.21.21,0,0,1-.11-.17q0-.18,0-.54t0-.54a3.86,3.86,0,0,1,.08-.62,3.8,3.8,0,0,0,.07-.63,2.75,2.75,0,0,0,0-.34c0-.16,0-.27,0-.35a.29.29,0,0,1,.12-.23.61.61,0,0,1,.4-.11l.9,0a3.41,3.41,0,0,1,.87.15c1,.33,1.51.73,1.51,1.2,0,.23-.17.44-.51.62a3.75,3.75,0,0,1-1,.32,6.72,6.72,0,0,1,1.75.81.22.22,0,0,1,.1.15c0,.07,0,.12-.12.17A.47.47,0,0,1,30.84,42.06Zm-2.4-3-.55,0,0,.28a1.57,1.57,0,0,1,0,.27,3,3,0,0,1-.05.46l-.09.45h.33a4.74,4.74,0,0,0,1.44-.16,1.73,1.73,0,0,0,.39-.18c.13-.09.2-.16.2-.22,0-.21-.2-.41-.59-.59A3.1,3.1,0,0,0,28.44,39Z"/><path class="cls-5" d="M35.05,39.19l-.61,0-.6,0a9.48,9.48,0,0,0-.09,1.27c0,.11,0,.24,0,.4s0,.29,0,.39a2.41,2.41,0,0,1,0,.4h1.19a.53.53,0,0,1,.26.06.22.22,0,0,1,.11.17.2.2,0,0,1-.11.17.45.45,0,0,1-.27.07H33.67c-.17,0-.41,0-.74,0l-.75,0a.53.53,0,0,1-.26-.07.18.18,0,0,1-.11-.16.19.19,0,0,1,.11-.17.53.53,0,0,1,.26-.07,7.83,7.83,0,0,0,.81,0,1.76,1.76,0,0,0,0-.42c0-.1,0-.23,0-.38a3.14,3.14,0,0,1,0-.39,10.56,10.56,0,0,1,.11-1.32h-1a.54.54,0,0,1-.27-.07.18.18,0,0,1-.11-.17c0-.14.11-.22.35-.23s.58,0,1.14,0,1.13,0,1.88.1q.33,0,.33.24a.19.19,0,0,1-.12.17A.58.58,0,0,1,35.05,39.19Z"/><path class="cls-5" d="M41.44,41.53a1.84,1.84,0,0,1-.06.36c0,.16-.17.23-.4.23a1,1,0,0,1-.49-.16A25.34,25.34,0,0,1,37,39.42l0,.52,0,.52c0,.13,0,.32,0,.57s0,.44,0,.57c0,.41-.13.62-.39.62a.61.61,0,0,1-.32-.08.22.22,0,0,1-.11-.17c0-.07,0-.16,0-.29a2.16,2.16,0,0,0,0-.29c0-.1,0-.24,0-.43s0-.33,0-.42,0-.25,0-.46,0-.35,0-.45a3.14,3.14,0,0,0-.05-.43,2.82,2.82,0,0,1,0-.43c0-.07,0-.13.14-.19a.67.67,0,0,1,.34-.09.78.78,0,0,1,.49.27c.63.56,1.19,1,1.69,1.41a17.92,17.92,0,0,0,2,1.28,1.36,1.36,0,0,0,0-.29v-.29a7.5,7.5,0,0,0-.13-1.59,1.36,1.36,0,0,0-.1-.24.66.66,0,0,1-.08-.24c0-.18.14-.27.4-.27.44,0,.65.5.65,1.48,0,.17,0,.43,0,.76S41.44,41.36,41.44,41.53Z"/><path class="cls-5" d="M46.91,39.14l-.86,0-.86,0h-.27c0,.21,0,.56.11,1a9.93,9.93,0,0,1,.08,1c0,.05,0,.13,0,.24a1.49,1.49,0,0,1,0,.25.39.39,0,0,1-.09.26.35.35,0,0,1-.32.16.6.6,0,0,1-.27-.07.19.19,0,0,1-.12-.16.49.49,0,0,1,0-.11.22.22,0,0,0,0-.1c0-.08,0-.19,0-.34a2.79,2.79,0,0,1,0-.33,6.19,6.19,0,0,0-.08-.92c-.06-.43-.09-.74-.1-.92h-.35A10.44,10.44,0,0,1,42.52,39c-.2,0-.3-.11-.3-.23a.22.22,0,0,1,.09-.17.54.54,0,0,1,.29-.07l.61,0,.6,0h1.38l.86,0,.85,0a.51.51,0,0,1,.28.07.18.18,0,0,1,.1.16.2.2,0,0,1-.1.17A.6.6,0,0,1,46.91,39.14Z"/><path class="cls-5" d="M50.62,39.19l-.61,0-.6,0a9.48,9.48,0,0,0-.09,1.27,3,3,0,0,0,0,.4c0,.16,0,.29,0,.39a2.41,2.41,0,0,1,0,.4h1.19a.53.53,0,0,1,.26.06.22.22,0,0,1,.11.17.2.2,0,0,1-.11.17.44.44,0,0,1-.26.07H49.24c-.17,0-.41,0-.74,0l-.75,0a.53.53,0,0,1-.26-.07.18.18,0,0,1-.11-.16.19.19,0,0,1,.11-.17.53.53,0,0,1,.26-.07,7.68,7.68,0,0,0,.81,0,1.76,1.76,0,0,0,0-.42c0-.1,0-.23,0-.38a3.14,3.14,0,0,1,0-.39,10.56,10.56,0,0,1,.11-1.32h-1a.54.54,0,0,1-.27-.07.18.18,0,0,1-.11-.17c0-.14.11-.22.35-.23s.58,0,1.14,0,1.13,0,1.88.1q.33,0,.33.24a.19.19,0,0,1-.12.17A.58.58,0,0,1,50.62,39.19Z"/><path class="cls-5" d="M57,41.53a1.84,1.84,0,0,1-.06.36c0,.16-.17.23-.4.23a1,1,0,0,1-.49-.16,25.34,25.34,0,0,1-3.52-2.54l0,.52,0,.52c0,.13,0,.32,0,.57s0,.44,0,.57c0,.41-.13.62-.39.62a.61.61,0,0,1-.32-.08.22.22,0,0,1-.11-.17,2,2,0,0,1,0-.29c0-.13,0-.23,0-.29s0-.24,0-.43,0-.33,0-.42,0-.25,0-.46,0-.35,0-.45a3.14,3.14,0,0,0-.05-.43,2.82,2.82,0,0,1,0-.43c0-.07,0-.13.15-.19a.6.6,0,0,1,.33-.09.81.81,0,0,1,.49.27c.63.56,1.19,1,1.69,1.41a17.92,17.92,0,0,0,2,1.28,1.36,1.36,0,0,0,0-.29v-.29a7.5,7.5,0,0,0-.13-1.59,1.36,1.36,0,0,0-.1-.24A.6.6,0,0,1,56,38.8q0-.27.39-.27c.44,0,.65.5.65,1.48,0,.17,0,.43,0,.76S57,41.36,57,41.53Z"/><path class="cls-5" d="M62.24,40.66a2,2,0,0,1-1,1.12,3.5,3.5,0,0,1-1.76.42,2.47,2.47,0,0,1-1.38-.32,1.05,1.05,0,0,1-.46-.94,2,2,0,0,1,.46-1.22,3.54,3.54,0,0,1,1.18-1,2.15,2.15,0,0,1,1-.26,4.05,4.05,0,0,1,.9.14c.45.11.68.23.68.37a.22.22,0,0,1-.11.17.6.6,0,0,1-.27.07.65.65,0,0,1-.23-.06,3,3,0,0,0-1-.21,1.24,1.24,0,0,0-.59.17,3.67,3.67,0,0,0-.45.33,2,2,0,0,0-.87,1.52.73.73,0,0,0,.22.6,1.43,1.43,0,0,0,.87.19,2.41,2.41,0,0,0,1.17-.26,1.5,1.5,0,0,0,.73-.78,7.4,7.4,0,0,0-1.78.25l-.17,0a.46.46,0,0,1-.27-.08.19.19,0,0,1-.1-.16c0-.09.06-.16.2-.21a9,9,0,0,1,2.79-.3.54.54,0,0,1,.27.07.2.2,0,0,1,.11.17Q62.45,40.6,62.24,40.66Z"/><path class="cls-5" d="M66.69,39.21a.64.64,0,0,1,.31-.48,1.18,1.18,0,0,1,1.38-.09.53.53,0,0,1,.23.44c0,.31-.3.6-.91.88a10.77,10.77,0,0,0,.89,1,1.23,1.23,0,0,0,.12-.26c0-.16.07-.25.08-.29a.34.34,0,0,1,.31-.19.33.33,0,0,1,.25.11.26.26,0,0,1,.07.19,1.18,1.18,0,0,1-.39.85c.42.4.62.64.62.72a.17.17,0,0,1-.1.14.49.49,0,0,1-.25.06.42.42,0,0,1-.29-.12l-.43-.46a3.24,3.24,0,0,1-1.69.45,2.59,2.59,0,0,1-1.2-.26.81.81,0,0,1-.52-.7,1,1,0,0,1,.55-.81,7.68,7.68,0,0,1,1.16-.55A1.14,1.14,0,0,1,66.69,39.21Zm.48,1a7.23,7.23,0,0,0-.88.41c-.3.18-.45.38-.45.58s.11.3.33.41a1.6,1.6,0,0,0,.72.14,2.21,2.21,0,0,0,1.31-.39A13.28,13.28,0,0,1,67.17,40.18Zm.29-.62c.32-.17.47-.33.47-.48a.19.19,0,0,0-.05-.16.24.24,0,0,0-.18-.05s-.11.05-.2.14-.14.16-.14.2A.89.89,0,0,0,67.46,39.56Z"/><path class="cls-5" d="M73.77,40.69l-.46,0c0,.23,0,.64,0,1.21a.18.18,0,0,1-.1.16.43.43,0,0,1-.24.06.49.49,0,0,1-.25-.06.19.19,0,0,1-.09-.16V41.2c0-.22,0-.54.06-.94s.07-.76.08-.95V39a.92.92,0,0,1,0-.33.32.32,0,0,1,.37-.17,1.56,1.56,0,0,1,.35,0l.54,0a3,3,0,0,1,1.3.29c.44.21.66.46.66.76a1,1,0,0,1-.71.9A3.52,3.52,0,0,1,73.77,40.69ZM74,38.88h-.52v.43l-.08.9.42,0a2.62,2.62,0,0,0,1.07-.2q.48-.21.48-.57c0-.17-.15-.32-.46-.44A2.27,2.27,0,0,0,74,38.88Z"/><path class="cls-5" d="M80.93,42.1c-.23,0-.44-.17-.61-.53a6.69,6.69,0,0,1-.25-.72l-1,.11-1,.13a8.57,8.57,0,0,1-.65.87.41.41,0,0,1-.32.13.5.5,0,0,1-.27-.07.18.18,0,0,1-.12-.16,3.64,3.64,0,0,1,.57-.84.15.15,0,0,1-.07-.13c0-.13.13-.2.37-.24.29-.33.65-.7,1.08-1.13.6-.57,1-.86,1.11-.86a.4.4,0,0,1,.41.25l.24.77L81,41.27l.21.36a.71.71,0,0,1,.11.24c0,.07,0,.12-.12.17A.53.53,0,0,1,80.93,42.1ZM79.6,39.49l-1.07,1.06q.45-.07,1.38-.18Z"/><path class="cls-5" d="M86,39.46a.4.4,0,0,1-.36-.17.46.46,0,0,0-.19-.17,1.6,1.6,0,0,0-.4,0,2.09,2.09,0,0,0-1.21.51c-.6.45-.9.89-.9,1.29a.61.61,0,0,0,.32.51,1.27,1.27,0,0,0,.77.22,2.63,2.63,0,0,0,.77-.12,5.63,5.63,0,0,0,.67-.26.79.79,0,0,1,.33-.1.5.5,0,0,1,.27.07.21.21,0,0,1,.1.17c0,.07,0,.13-.14.18a4.25,4.25,0,0,1-2,.53,2.29,2.29,0,0,1-1.31-.36,1,1,0,0,1-.52-.84,2.18,2.18,0,0,1,1.07-1.59,3,3,0,0,1,1.79-.68h.33l.26,0a.5.5,0,0,1,.35-.12.29.29,0,0,1,.32.21,1.44,1.44,0,0,1,.06.45.18.18,0,0,1-.08.16A.42.42,0,0,1,86,39.46Z"/><path class="cls-5" d="M90.83,42.13a3.67,3.67,0,0,1-1.63-.61l-1.12-.69v1.23c0,.15-.11.23-.33.23a.51.51,0,0,1-.34-.11A.29.29,0,0,1,87.3,42c0-.35,0-.89,0-1.6s.06-1.24.06-1.6a.18.18,0,0,1,.1-.16.45.45,0,0,1,.27-.07.44.44,0,0,1,.26.07.19.19,0,0,1,.11.16c0,.15,0,.38,0,.69s0,.54,0,.7c.33-.2.71-.44,1.13-.73l1.08-.76a.48.48,0,0,1,.29-.09.44.44,0,0,1,.26.07.19.19,0,0,1,.12.16c0,.1-.32.37-1,.81-.44.29-.91.59-1.38.87.3.19.77.47,1.41.83l.39.2a1.9,1.9,0,0,0,.46.15c.2,0,.3.11.3.23a.16.16,0,0,1-.08.14A.36.36,0,0,1,90.83,42.13Z"/><path class="cls-5" d="M95.9,42.1c-.24,0-.44-.17-.61-.53a6.69,6.69,0,0,1-.25-.72L94,41l-1,.13a8.57,8.57,0,0,1-.65.87.42.42,0,0,1-.33.13.48.48,0,0,1-.26-.07.18.18,0,0,1-.12-.16,3.79,3.79,0,0,1,.56-.84.16.16,0,0,1-.06-.13c0-.13.12-.2.37-.24.29-.33.64-.7,1.08-1.13.6-.57,1-.86,1.11-.86a.41.41,0,0,1,.41.25l.23.77L96,41.27l.21.36a.71.71,0,0,1,.11.24c0,.07,0,.12-.12.17A.55.55,0,0,1,95.9,42.1Zm-1.33-2.61L93.5,40.55q.45-.07,1.38-.18Z"/><path class="cls-5" d="M101.71,40.66a2,2,0,0,1-1,1.12A3.49,3.49,0,0,1,99,42.2a2.48,2.48,0,0,1-1.39-.32,1.08,1.08,0,0,1-.46-.94,2.11,2.11,0,0,1,.46-1.22,3.54,3.54,0,0,1,1.18-1,2.15,2.15,0,0,1,1-.26,4.05,4.05,0,0,1,.9.14c.46.11.68.23.68.37a.2.2,0,0,1-.11.17.54.54,0,0,1-.27.07.7.7,0,0,1-.23-.06,2.93,2.93,0,0,0-1-.21,1.27,1.27,0,0,0-.59.17,3.76,3.76,0,0,0-.44.33,2,2,0,0,0-.87,1.52.7.7,0,0,0,.22.6,1.39,1.39,0,0,0,.87.19,2.41,2.41,0,0,0,1.17-.26,1.48,1.48,0,0,0,.72-.78,7.4,7.4,0,0,0-1.78.25l-.16,0a.49.49,0,0,1-.28-.08.19.19,0,0,1-.1-.16c0-.09.07-.16.2-.21a9,9,0,0,1,2.79-.3.54.54,0,0,1,.27.07.2.2,0,0,1,.11.17Q101.92,40.6,101.71,40.66Z"/><path class="cls-5" d="M105.66,39.19l-.61,0-.6,0a9.48,9.48,0,0,0-.09,1.27c0,.11,0,.24,0,.4s0,.29,0,.39,0,.28,0,.4h1.18a.53.53,0,0,1,.26.06.22.22,0,0,1,.11.17.2.2,0,0,1-.11.17.44.44,0,0,1-.26.07h-1.27c-.16,0-.41,0-.74,0l-.75,0a.53.53,0,0,1-.26-.07.19.19,0,0,1-.11-.16.21.21,0,0,1,.11-.17.54.54,0,0,1,.27-.07,8,8,0,0,0,.81,0,2.58,2.58,0,0,0,0-.42,2.76,2.76,0,0,0,0-.38,2.89,2.89,0,0,1,0-.39,10.29,10.29,0,0,1,.1-1.32h-1a.54.54,0,0,1-.27-.07.2.2,0,0,1-.11-.17c0-.14.12-.22.35-.23s.59,0,1.14,0,1.13,0,1.88.1c.23,0,.34.1.34.24a.19.19,0,0,1-.13.17A.53.53,0,0,1,105.66,39.19Z"/><path class="cls-5" d="M112.05,41.53a1.84,1.84,0,0,1-.06.36c0,.16-.17.23-.4.23a1,1,0,0,1-.49-.16,25.34,25.34,0,0,1-3.52-2.54l0,.52v.52c0,.13,0,.32,0,.57s0,.44,0,.57c0,.41-.13.62-.39.62a.62.62,0,0,1-.33-.08.22.22,0,0,1-.11-.17,2,2,0,0,1,0-.29c0-.13,0-.23,0-.29s0-.24,0-.43,0-.33,0-.42,0-.25,0-.46,0-.35,0-.45a2.08,2.08,0,0,0,0-.43,2.82,2.82,0,0,1,0-.43c0-.07,0-.13.15-.19a.64.64,0,0,1,.34-.09.83.83,0,0,1,.49.27c.62.56,1.18,1,1.68,1.41a17.92,17.92,0,0,0,2,1.28,1.36,1.36,0,0,0,0-.29v-.29a7.5,7.5,0,0,0-.13-1.59.85.85,0,0,0-.1-.24.6.6,0,0,1-.07-.24c0-.18.13-.27.4-.27.43,0,.65.5.65,1.48,0,.17,0,.43,0,.76S112.05,41.36,112.05,41.53Z"/><path class="cls-5" d="M117.28,40.66a2,2,0,0,1-1,1.12,3.49,3.49,0,0,1-1.75.42,2.48,2.48,0,0,1-1.39-.32,1.08,1.08,0,0,1-.46-.94,2.11,2.11,0,0,1,.46-1.22,3.54,3.54,0,0,1,1.18-1,2.15,2.15,0,0,1,1-.26,4.05,4.05,0,0,1,.9.14c.46.11.69.23.69.37a.21.21,0,0,1-.12.17.54.54,0,0,1-.27.07.7.7,0,0,1-.23-.06,2.93,2.93,0,0,0-1-.21,1.24,1.24,0,0,0-.59.17,3.76,3.76,0,0,0-.44.33,2,2,0,0,0-.87,1.52.7.7,0,0,0,.22.6,1.39,1.39,0,0,0,.87.19,2.41,2.41,0,0,0,1.17-.26,1.5,1.5,0,0,0,.73-.78,7.42,7.42,0,0,0-1.79.25l-.16,0a.49.49,0,0,1-.28-.08.19.19,0,0,1-.1-.16c0-.09.07-.16.2-.21a9,9,0,0,1,2.79-.3.54.54,0,0,1,.27.07.18.18,0,0,1,.11.17Q117.49,40.6,117.28,40.66Z"/><rect class="cls-5" x="22.65" y="19.81" width="1.91" height="16.71"/><polygon class="cls-5" points="22.65 19.81 24.55 19.81 32.87 36.52 30.97 36.52 22.65 19.81"/><rect class="cls-5" x="23.79" y="31.49" width="6.09" height="1.3"/><path class="cls-5" d="M38.61,21.12H33.07v6.34h5.12V28.8H33.07v7.72H31V19.81h7.64Z"/><path class="cls-5" d="M49.15,21.12H43.61v6.34h5.12V28.8H43.61v7.72h-2.1V19.81h7.64Z"/><path class="cls-5" d="M59.82,36.52H52.05V19.81h7.69v1.31H54.15v6.23h5.09v1.34H54.15v6.52h5.67Z"/><path class="cls-5" d="M72.66,35.29a1.05,1.05,0,0,1-.5.89,2.15,2.15,0,0,1-1.26.34h-6a2.13,2.13,0,0,1-1.26-.34,1,1,0,0,1-.49-.89V21.05a1,1,0,0,1,.49-.89,2.13,2.13,0,0,1,1.26-.35h6a2.16,2.16,0,0,1,1.26.35,1,1,0,0,1,.5.89v3.82H70.52V21.12H65.23V35.21h5.29V31.13h2.14Z"/><path class="cls-5" d="M84.45,21.12H80.8v15.4H78.7V21.12H75V19.81h9.45Z"/><path class="cls-5" d="M89.17,36.52H87.06V19.81h2.11Z"/><path class="cls-5" d="M103.12,35.29a1.05,1.05,0,0,1-.5.89,2.15,2.15,0,0,1-1.26.34H94.88a2.16,2.16,0,0,1-1.27-.34,1,1,0,0,1-.49-.89V21.05a1,1,0,0,1,.49-.89,2.17,2.17,0,0,1,1.27-.35h6.48a2.16,2.16,0,0,1,1.26.35,1,1,0,0,1,.5.89Zm-2.1-.08V21.12h-5.8V35.21Z"/><path class="cls-5" d="M116.66,36.52h-1.44l-6.33-12.29V36.52h-2V19.81h1.56l6.21,12.08V19.81h2Z"/></g></g></svg>