<svg width="41" height="46" viewBox="0 0 41 46" fill="none" xmlns="http://www.w3.org/2000/svg">
<g filter="url(#filter0_d_305_838)">
<path d="M25.52 1V36.54" stroke="#231F20"/>
<path d="M43.29 18.77H7.75" stroke="#231F20"/>
<path d="M24.15 17.3998V8.21977C24.15 5.12977 20.4 1.37977 15.42 1.33977C10.44 1.29977 6.11 1.49977 5 1.00977C6.64781 2.77671 7.62133 5.06713 7.75 7.47977C7.87 11.3898 7.75 17.3998 13.1 17.3998H24.15Z" fill="#BC95C4" stroke="#231F20" stroke-width="0.5" stroke-linecap="round" stroke-linejoin="round"/>
<path d="M24.1501 17.4001V13.8201C24.1501 12.6201 23.3001 7.31006 18.8301 7.31006C14.3601 7.31006 12.8301 8.03006 11.8301 7.06006C12.6407 8.53086 13.1315 10.1564 13.2701 11.8301C13.3752 13.3068 14.0226 14.6925 15.0878 15.7207C16.1529 16.7489 17.5606 17.347 19.0401 17.4001H24.1501Z" fill="#F7941D" stroke="#231F20" stroke-width="0.5" stroke-linecap="round" stroke-linejoin="round"/>
<path d="M24.1501 17.3998C24.1501 17.3998 23.7401 16.4898 21.3901 16.4898C19.0401 16.4898 18.0301 15.1298 18.0301 13.8098C17.9966 12.9335 17.7494 12.0787 17.3101 11.3198C18.2737 11.7507 19.3146 11.982 20.3701 11.9998C22.0401 11.9998 24.1501 13.5498 24.1501 15.4698V17.3998Z" fill="#FFF200" stroke="#231F20" stroke-width="0.5" stroke-linecap="round" stroke-linejoin="round"/>
<path d="M24.1499 20.1401V28.4101C24.1499 31.1801 20.7799 34.5601 16.2899 34.5901C11.7999 34.6201 7.91992 34.4501 6.91992 34.8901C8.39035 33.2961 9.25398 31.2362 9.35992 29.0701C9.46992 25.5501 9.35992 20.1401 14.1799 20.1401H24.1499Z" fill="#BC95C4" stroke="#231F20" stroke-width="0.5" stroke-linecap="round" stroke-linejoin="round"/>
<path d="M24.1501 20.1401V23.3701C24.1501 24.4401 23.3901 29.2201 19.3701 29.2201C15.3501 29.2201 13.9301 28.5801 13.0601 29.4501C13.7911 28.1242 14.2341 26.659 14.3601 25.1501C14.449 23.8207 15.0298 22.5721 15.9893 21.6477C16.9489 20.7233 18.2183 20.1894 19.5501 20.1501L24.1501 20.1401Z" fill="#F7941D" stroke="#231F20" stroke-width="0.5" stroke-linecap="round" stroke-linejoin="round"/>
<path d="M26.8901 17.4001V9.96012C26.8901 7.46012 29.8901 4.42012 33.9601 4.39012C38.0301 4.36012 41.5001 4.52012 42.4001 4.12012C41.0745 5.55442 40.2957 7.40937 40.2001 9.36012C40.1001 12.5301 40.2001 17.3601 35.8601 17.3601L26.8901 17.4001Z" fill="#BC95C4" stroke="#231F20" stroke-width="0.5" stroke-linecap="round" stroke-linejoin="round"/>
<path d="M26.8901 17.4V14.5C26.8901 13.5 27.5801 9.23002 31.2001 9.23002C34.8201 9.23002 36.0901 9.81002 36.8701 9.02002C36.2284 10.2167 35.8467 11.5355 35.7501 12.89C35.6712 14.0876 35.1492 15.2129 34.2859 16.0467C33.4226 16.8804 32.2798 17.3629 31.0801 17.4H26.8901Z" fill="#F7941D" stroke="#231F20" stroke-width="0.5" stroke-linecap="round" stroke-linejoin="round"/>
<path d="M29.3099 20.5698H27.3999V37.2798H29.3099V20.5698Z" fill="#231F20"/>
<path d="M27.3999 20.5698H29.2999L37.6199 37.2798H35.7199L27.3999 20.5698Z" fill="#231F20"/>
<path d="M34.63 32.25H28.54V33.55H34.63V32.25Z" fill="#231F20"/>
</g>
<defs>
<filter id="filter0_d_305_838" x="0.75" y="0.759766" width="46.54" height="44.52" filterUnits="userSpaceOnUse" color-interpolation-filters="sRGB">
<feFlood flood-opacity="0" result="BackgroundImageFix"/>
<feColorMatrix in="SourceAlpha" type="matrix" values="0 0 0 0 0 0 0 0 0 0 0 0 0 0 0 0 0 0 127 0" result="hardAlpha"/>
<feOffset dy="4"/>
<feGaussianBlur stdDeviation="2"/>
<feComposite in2="hardAlpha" operator="out"/>
<feColorMatrix type="matrix" values="0 0 0 0 0 0 0 0 0 0 0 0 0 0 0 0 0 0 0.25 0"/>
<feBlend mode="normal" in2="BackgroundImageFix" result="effect1_dropShadow_305_838"/>
<feBlend mode="normal" in="SourceGraphic" in2="effect1_dropShadow_305_838" result="shape"/>
</filter>
</defs>
</svg>
